<svg xmlns="http://www.w3.org/2000/svg" viewBox="0 0 600 420" role="img" aria-label="article cover">
  <defs>
    <linearGradient id="bg" x1="0" y1="0" x2="1" y2="1">
      <stop offset="0" stop-color="#f6fbf5"/>
      <stop offset="1" stop-color="#d8eee2"/>
    </linearGradient>
    <filter id="shadow" x="-20%" y="-20%" width="140%" height="140%">
      <feDropShadow dx="0" dy="18" stdDeviation="18" flood-color="#164f43" flood-opacity=".16"/>
    </filter>
  </defs>
  <rect width="600" height="420" rx="34" fill="url(#bg)"/>
  <circle cx="492" cy="86" r="92" fill="#ffffff" opacity=".48"/>
  <circle cx="90" cy="346" r="118" fill="#b8dfcd" opacity=".32"/>
  <g filter="url(#shadow)">
    <rect x="125" y="78" width="260" height="300" rx="24" fill="#fffefa"/>
    <rect x="162" y="128" width="152" height="18" rx="9" fill="#1f7666" opacity=".92"/>
    <rect x="162" y="172" width="184" height="12" rx="6" fill="#7a958d"/>
    <rect x="162" y="202" width="172" height="12" rx="6" fill="#9bad9d"/>
    <rect x="162" y="232" width="134" height="12" rx="6" fill="#b1c1b2"/>
    <rect x="162" y="286" width="126" height="20" rx="10" fill="#d8eee2"/>
  </g>
  <g transform="translate(333 205) rotate(-28)">
    <rect x="0" y="0" width="54" height="150" rx="18" fill="#0f766e"/>
    <rect x="16" y="13" width="22" height="104" rx="11" fill="#f2f7f1"/>
    <path d="M5 137h44l-22 52z" fill="#102a43"/>
    <path d="M20 176h14l-7 18z" fill="#f5b66b"/>
  </g>
  <text x="50" y="62" fill="#102033" font-size="32" font-weight="800" font-family="Arial, sans-serif">&#x6587;&#x7AE0;</text>
  <text x="50" y="97" fill="#577064" font-size="18" font-weight="700" font-family="Arial, sans-serif">ARTICLE</text>
</svg>
