<svg xmlns="http://www.w3.org/2000/svg" viewBox="0 0 600 420" role="img" aria-label="input cover">
  <defs>
    <linearGradient id="bg" x1="0" y1="0" x2="1" y2="1">
      <stop offset="0" stop-color="#f8fafc"/>
      <stop offset="1" stop-color="#e0f2fe"/>
    </linearGradient>
    <filter id="shadow" x="-20%" y="-20%" width="140%" height="140%">
      <feDropShadow dx="0" dy="18" stdDeviation="18" flood-color="#0f766e" flood-opacity=".14"/>
    </filter>
  </defs>
  <rect width="600" height="420" rx="34" fill="url(#bg)"/>
  <circle cx="92" cy="108" r="90" fill="#bae6fd" opacity=".48"/>
  <circle cx="504" cy="332" r="112" fill="#99f6e4" opacity=".34"/>
  <g filter="url(#shadow)">
    <rect x="106" y="108" width="388" height="214" rx="30" fill="#ffffff"/>
    <rect x="142" y="146" width="64" height="42" rx="12" fill="#ccfbf1"/>
    <rect x="222" y="146" width="64" height="42" rx="12" fill="#dbeafe"/>
    <rect x="302" y="146" width="64" height="42" rx="12" fill="#ccfbf1"/>
    <rect x="382" y="146" width="64" height="42" rx="12" fill="#dbeafe"/>
    <rect x="142" y="208" width="74" height="42" rx="12" fill="#e2e8f0"/>
    <rect x="232" y="208" width="148" height="42" rx="12" fill="#0f766e"/>
    <rect x="396" y="208" width="50" height="42" rx="12" fill="#e2e8f0"/>
  </g>
  <path d="M466 124v124" stroke="#0f766e" stroke-width="12" stroke-linecap="round"/>
  <path d="M448 124h36M448 248h36" stroke="#0f766e" stroke-width="12" stroke-linecap="round"/>
  <text x="50" y="62" fill="#102033" font-size="32" font-weight="800" font-family="Arial, sans-serif">&#x8F93;&#x5165;</text>
  <text x="50" y="97" fill="#0f766e" font-size="18" font-weight="700" font-family="Arial, sans-serif">INPUT</text>
</svg>
