<svg xmlns="http://www.w3.org/2000/svg" viewBox="0 0 600 420" role="img" aria-label="audio video cover">
  <defs>
    <linearGradient id="bg" x1="0" y1="0" x2="1" y2="1">
      <stop offset="0" stop-color="#fff7ed"/>
      <stop offset="1" stop-color="#fee2e2"/>
    </linearGradient>
    <filter id="shadow" x="-20%" y="-20%" width="140%" height="140%">
      <feDropShadow dx="0" dy="20" stdDeviation="18" flood-color="#b91c1c" flood-opacity=".18"/>
    </filter>
  </defs>
  <rect width="600" height="420" rx="34" fill="url(#bg)"/>
  <circle cx="105" cy="330" r="104" fill="#fed7aa" opacity=".45"/>
  <circle cx="500" cy="92" r="96" fill="#fecaca" opacity=".58"/>
  <g filter="url(#shadow)">
    <rect x="104" y="92" width="392" height="220" rx="30" fill="#111827"/>
    <rect x="128" y="118" width="344" height="168" rx="20" fill="#1f2937"/>
    <path d="M267 164v76l72-38z" fill="#f97316"/>
  </g>
  <g transform="translate(132 342)" fill="#ea580c">
    <rect x="0" y="28" width="18" height="34" rx="9"/>
    <rect x="34" y="8" width="18" height="74" rx="9"/>
    <rect x="68" y="21" width="18" height="48" rx="9"/>
    <rect x="102" y="0" width="18" height="90" rx="9"/>
    <rect x="136" y="18" width="18" height="54" rx="9"/>
    <rect x="170" y="31" width="18" height="28" rx="9"/>
  </g>
  <text x="50" y="62" fill="#102033" font-size="32" font-weight="800" font-family="Arial, sans-serif">&#x97F3;&#x89C6;&#x9891;</text>
  <text x="50" y="97" fill="#9a3412" font-size="18" font-weight="700" font-family="Arial, sans-serif">MEDIA</text>
</svg>
