<svg xmlns="http://www.w3.org/2000/svg" viewBox="0 0 600 420" role="img" aria-label="social cover">
  <defs>
    <linearGradient id="bg" x1="0" y1="0" x2="1" y2="1">
      <stop offset="0" stop-color="#f4f8ff"/>
      <stop offset="1" stop-color="#dbeafe"/>
    </linearGradient>
    <filter id="shadow" x="-20%" y="-20%" width="140%" height="140%">
      <feDropShadow dx="0" dy="18" stdDeviation="18" flood-color="#1d4ed8" flood-opacity=".18"/>
    </filter>
  </defs>
  <rect width="600" height="420" rx="34" fill="url(#bg)"/>
  <circle cx="88" cy="112" r="84" fill="#bfdbfe" opacity=".5"/>
  <circle cx="512" cy="330" r="110" fill="#93c5fd" opacity=".25"/>
  <g filter="url(#shadow)">
    <path d="M128 116c0-29 24-53 53-53h214c29 0 53 24 53 53v92c0 29-24 53-53 53H250l-78 64v-64h9c-29 0-53-24-53-53z" fill="#ffffff"/>
    <path d="M184 146h188" stroke="#2563eb" stroke-width="18" stroke-linecap="round"/>
    <path d="M184 190h132" stroke="#8bb6ff" stroke-width="16" stroke-linecap="round"/>
  </g>
  <g transform="translate(365 205)" filter="url(#shadow)">
    <path d="M0 0c0-24 19-43 43-43h72c24 0 43 19 43 43v48c0 24-19 43-43 43h-9l-46 38V91H43C19 91 0 72 0 48z" fill="#1d4ed8"/>
    <circle cx="50" cy="25" r="9" fill="#fff"/>
    <circle cx="82" cy="25" r="9" fill="#fff"/>
    <circle cx="114" cy="25" r="9" fill="#fff"/>
  </g>
  <text x="50" y="62" fill="#102033" font-size="32" font-weight="800" font-family="Arial, sans-serif">&#x793E;&#x4EA4;</text>
  <text x="50" y="97" fill="#41618e" font-size="18" font-weight="700" font-family="Arial, sans-serif">SOCIAL</text>
</svg>
